<mxfile host="Electron" agent="Mozilla/5.0 (Windows NT 10.0; Win64; x64) AppleWebKit/537.36 (KHTML, like Gecko) draw.io/26.2.2 Chrome/134.0.6998.178 Electron/35.1.2 Safari/537.36" version="26.2.2">
  <diagram name="Page-1" id="QJVP1baaEE77sVlvwyMQ">
    <mxGraphModel dx="1455" dy="1840" grid="1" gridSize="10" guides="1" tooltips="1" connect="1" arrows="1" fold="1" page="1" pageScale="1" pageWidth="850" pageHeight="1100" math="0" shadow="0">
      <root>
        <mxCell id="0" />
        <mxCell id="1" parent="0" />
        <mxCell id="kcDnxzll6zLoRLHCQ6mz-59" style="edgeStyle=orthogonalEdgeStyle;rounded=0;orthogonalLoop=1;jettySize=auto;html=1;exitX=1;exitY=0;exitDx=0;exitDy=0;" edge="1" parent="1" source="kcDnxzll6zLoRLHCQ6mz-1">
          <mxGeometry relative="1" as="geometry">
            <mxPoint x="809.6521739130435" y="250" as="targetPoint" />
          </mxGeometry>
        </mxCell>
        <mxCell id="kcDnxzll6zLoRLHCQ6mz-62" value="actualiza y&lt;div&gt;consulta&lt;/div&gt;" style="edgeLabel;html=1;align=center;verticalAlign=middle;resizable=0;points=[];" vertex="1" connectable="0" parent="kcDnxzll6zLoRLHCQ6mz-59">
          <mxGeometry x="-0.0087" y="-1" relative="1" as="geometry">
            <mxPoint x="-2" as="offset" />
          </mxGeometry>
        </mxCell>
        <mxCell id="kcDnxzll6zLoRLHCQ6mz-1" value="Modelo" style="swimlane;whiteSpace=wrap;html=1;fillColor=#60a917;fontColor=#ffffff;strokeColor=#2D7600;" vertex="1" parent="1">
          <mxGeometry x="330" y="390" width="480" height="380" as="geometry" />
        </mxCell>
        <mxCell id="kcDnxzll6zLoRLHCQ6mz-12" value="DB" style="shape=cylinder3;whiteSpace=wrap;html=1;boundedLbl=1;backgroundOutline=1;size=15;" vertex="1" parent="kcDnxzll6zLoRLHCQ6mz-1">
          <mxGeometry x="332.5" y="60" width="45" height="60" as="geometry" />
        </mxCell>
        <mxCell id="kcDnxzll6zLoRLHCQ6mz-40" style="edgeStyle=orthogonalEdgeStyle;rounded=0;orthogonalLoop=1;jettySize=auto;html=1;exitX=0.25;exitY=1;exitDx=0;exitDy=0;" edge="1" parent="kcDnxzll6zLoRLHCQ6mz-1" source="kcDnxzll6zLoRLHCQ6mz-34" target="kcDnxzll6zLoRLHCQ6mz-38">
          <mxGeometry relative="1" as="geometry" />
        </mxCell>
        <mxCell id="kcDnxzll6zLoRLHCQ6mz-41" style="edgeStyle=orthogonalEdgeStyle;rounded=0;orthogonalLoop=1;jettySize=auto;html=1;exitX=0.75;exitY=1;exitDx=0;exitDy=0;entryX=0.5;entryY=0;entryDx=0;entryDy=0;" edge="1" parent="kcDnxzll6zLoRLHCQ6mz-1" source="kcDnxzll6zLoRLHCQ6mz-34" target="kcDnxzll6zLoRLHCQ6mz-39">
          <mxGeometry relative="1" as="geometry" />
        </mxCell>
        <mxCell id="kcDnxzll6zLoRLHCQ6mz-34" value="libro.py" style="rounded=0;whiteSpace=wrap;html=1;fillColor=#647687;fontColor=#ffffff;strokeColor=#314354;" vertex="1" parent="kcDnxzll6zLoRLHCQ6mz-1">
          <mxGeometry x="80" y="50" width="80" height="40" as="geometry" />
        </mxCell>
        <mxCell id="kcDnxzll6zLoRLHCQ6mz-38" value="Crea un libro" style="rounded=0;whiteSpace=wrap;html=1;fillColor=#647687;fontColor=#ffffff;strokeColor=#314354;" vertex="1" parent="kcDnxzll6zLoRLHCQ6mz-1">
          <mxGeometry x="25" y="130" width="80" height="40" as="geometry" />
        </mxCell>
        <mxCell id="kcDnxzll6zLoRLHCQ6mz-39" value="Modifica un libro" style="rounded=0;whiteSpace=wrap;html=1;fillColor=#647687;fontColor=#ffffff;strokeColor=#314354;" vertex="1" parent="kcDnxzll6zLoRLHCQ6mz-1">
          <mxGeometry x="140" y="130" width="80" height="40" as="geometry" />
        </mxCell>
        <mxCell id="kcDnxzll6zLoRLHCQ6mz-45" style="edgeStyle=orthogonalEdgeStyle;rounded=0;orthogonalLoop=1;jettySize=auto;html=1;exitX=0.25;exitY=1;exitDx=0;exitDy=0;" edge="1" source="kcDnxzll6zLoRLHCQ6mz-47" target="kcDnxzll6zLoRLHCQ6mz-48" parent="kcDnxzll6zLoRLHCQ6mz-1">
          <mxGeometry relative="1" as="geometry" />
        </mxCell>
        <mxCell id="kcDnxzll6zLoRLHCQ6mz-46" style="edgeStyle=orthogonalEdgeStyle;rounded=0;orthogonalLoop=1;jettySize=auto;html=1;exitX=0.75;exitY=1;exitDx=0;exitDy=0;entryX=0.5;entryY=0;entryDx=0;entryDy=0;" edge="1" source="kcDnxzll6zLoRLHCQ6mz-47" target="kcDnxzll6zLoRLHCQ6mz-49" parent="kcDnxzll6zLoRLHCQ6mz-1">
          <mxGeometry relative="1" as="geometry" />
        </mxCell>
        <mxCell id="kcDnxzll6zLoRLHCQ6mz-47" value="usuario.py" style="rounded=0;whiteSpace=wrap;html=1;fillColor=#647687;fontColor=#ffffff;strokeColor=#314354;" vertex="1" parent="kcDnxzll6zLoRLHCQ6mz-1">
          <mxGeometry x="80" y="210" width="80" height="40" as="geometry" />
        </mxCell>
        <mxCell id="kcDnxzll6zLoRLHCQ6mz-48" value="Ingresar datos" style="rounded=0;whiteSpace=wrap;html=1;fillColor=#647687;fontColor=#ffffff;strokeColor=#314354;" vertex="1" parent="kcDnxzll6zLoRLHCQ6mz-1">
          <mxGeometry x="25" y="290" width="80" height="40" as="geometry" />
        </mxCell>
        <mxCell id="kcDnxzll6zLoRLHCQ6mz-49" value="Modificar datos" style="rounded=0;whiteSpace=wrap;html=1;fillColor=#647687;fontColor=#ffffff;strokeColor=#314354;" vertex="1" parent="kcDnxzll6zLoRLHCQ6mz-1">
          <mxGeometry x="140" y="290" width="80" height="40" as="geometry" />
        </mxCell>
        <mxCell id="kcDnxzll6zLoRLHCQ6mz-50" style="edgeStyle=orthogonalEdgeStyle;rounded=0;orthogonalLoop=1;jettySize=auto;html=1;exitX=0.25;exitY=1;exitDx=0;exitDy=0;" edge="1" source="kcDnxzll6zLoRLHCQ6mz-52" target="kcDnxzll6zLoRLHCQ6mz-53" parent="kcDnxzll6zLoRLHCQ6mz-1">
          <mxGeometry relative="1" as="geometry" />
        </mxCell>
        <mxCell id="kcDnxzll6zLoRLHCQ6mz-51" style="edgeStyle=orthogonalEdgeStyle;rounded=0;orthogonalLoop=1;jettySize=auto;html=1;exitX=0.75;exitY=1;exitDx=0;exitDy=0;entryX=0.5;entryY=0;entryDx=0;entryDy=0;" edge="1" source="kcDnxzll6zLoRLHCQ6mz-52" target="kcDnxzll6zLoRLHCQ6mz-54" parent="kcDnxzll6zLoRLHCQ6mz-1">
          <mxGeometry relative="1" as="geometry" />
        </mxCell>
        <mxCell id="kcDnxzll6zLoRLHCQ6mz-52" value="prestamo.py" style="rounded=0;whiteSpace=wrap;html=1;fillColor=#647687;fontColor=#ffffff;strokeColor=#314354;" vertex="1" parent="kcDnxzll6zLoRLHCQ6mz-1">
          <mxGeometry x="315" y="210" width="80" height="40" as="geometry" />
        </mxCell>
        <mxCell id="kcDnxzll6zLoRLHCQ6mz-53" value="Solicitar préstamo" style="rounded=0;whiteSpace=wrap;html=1;fillColor=#647687;fontColor=#ffffff;strokeColor=#314354;" vertex="1" parent="kcDnxzll6zLoRLHCQ6mz-1">
          <mxGeometry x="260" y="290" width="80" height="40" as="geometry" />
        </mxCell>
        <mxCell id="kcDnxzll6zLoRLHCQ6mz-54" value="Realizar devolución" style="rounded=0;whiteSpace=wrap;html=1;fillColor=#647687;fontColor=#ffffff;strokeColor=#314354;" vertex="1" parent="kcDnxzll6zLoRLHCQ6mz-1">
          <mxGeometry x="375" y="290" width="80" height="40" as="geometry" />
        </mxCell>
        <mxCell id="kcDnxzll6zLoRLHCQ6mz-2" value="Controlador" style="swimlane;whiteSpace=wrap;html=1;fillColor=#0050ef;fontColor=#ffffff;strokeColor=#001DBC;" vertex="1" parent="1">
          <mxGeometry x="380" y="50" width="860" height="200" as="geometry" />
        </mxCell>
        <mxCell id="kcDnxzll6zLoRLHCQ6mz-68" style="edgeStyle=orthogonalEdgeStyle;rounded=0;orthogonalLoop=1;jettySize=auto;html=1;exitX=0.25;exitY=1;exitDx=0;exitDy=0;" edge="1" parent="kcDnxzll6zLoRLHCQ6mz-2" source="kcDnxzll6zLoRLHCQ6mz-70" target="kcDnxzll6zLoRLHCQ6mz-71">
          <mxGeometry relative="1" as="geometry" />
        </mxCell>
        <mxCell id="kcDnxzll6zLoRLHCQ6mz-69" style="edgeStyle=orthogonalEdgeStyle;rounded=0;orthogonalLoop=1;jettySize=auto;html=1;exitX=0.75;exitY=1;exitDx=0;exitDy=0;entryX=0.5;entryY=0;entryDx=0;entryDy=0;" edge="1" parent="kcDnxzll6zLoRLHCQ6mz-2" source="kcDnxzll6zLoRLHCQ6mz-70" target="kcDnxzll6zLoRLHCQ6mz-72">
          <mxGeometry relative="1" as="geometry" />
        </mxCell>
        <mxCell id="kcDnxzll6zLoRLHCQ6mz-70" value="libros.py" style="rounded=0;whiteSpace=wrap;html=1;fillColor=#647687;fontColor=#ffffff;strokeColor=#314354;" vertex="1" parent="kcDnxzll6zLoRLHCQ6mz-2">
          <mxGeometry x="71.25" y="50" width="80" height="40" as="geometry" />
        </mxCell>
        <mxCell id="kcDnxzll6zLoRLHCQ6mz-71" value="" style="rounded=0;whiteSpace=wrap;html=1;fillColor=#647687;fontColor=#ffffff;strokeColor=#314354;" vertex="1" parent="kcDnxzll6zLoRLHCQ6mz-2">
          <mxGeometry x="16.25" y="130" width="80" height="40" as="geometry" />
        </mxCell>
        <mxCell id="kcDnxzll6zLoRLHCQ6mz-72" value="" style="rounded=0;whiteSpace=wrap;html=1;fillColor=#647687;fontColor=#ffffff;strokeColor=#314354;" vertex="1" parent="kcDnxzll6zLoRLHCQ6mz-2">
          <mxGeometry x="131.25" y="130" width="80" height="40" as="geometry" />
        </mxCell>
        <mxCell id="kcDnxzll6zLoRLHCQ6mz-73" style="edgeStyle=orthogonalEdgeStyle;rounded=0;orthogonalLoop=1;jettySize=auto;html=1;exitX=0.25;exitY=1;exitDx=0;exitDy=0;" edge="1" parent="kcDnxzll6zLoRLHCQ6mz-2" source="kcDnxzll6zLoRLHCQ6mz-75" target="kcDnxzll6zLoRLHCQ6mz-76">
          <mxGeometry relative="1" as="geometry" />
        </mxCell>
        <mxCell id="kcDnxzll6zLoRLHCQ6mz-74" style="edgeStyle=orthogonalEdgeStyle;rounded=0;orthogonalLoop=1;jettySize=auto;html=1;exitX=0.75;exitY=1;exitDx=0;exitDy=0;entryX=0.5;entryY=0;entryDx=0;entryDy=0;" edge="1" parent="kcDnxzll6zLoRLHCQ6mz-2" source="kcDnxzll6zLoRLHCQ6mz-75" target="kcDnxzll6zLoRLHCQ6mz-77">
          <mxGeometry relative="1" as="geometry" />
        </mxCell>
        <mxCell id="kcDnxzll6zLoRLHCQ6mz-75" value="prestamos.py" style="rounded=0;whiteSpace=wrap;html=1;fillColor=#647687;fontColor=#ffffff;strokeColor=#314354;" vertex="1" parent="kcDnxzll6zLoRLHCQ6mz-2">
          <mxGeometry x="283.75" y="50" width="80" height="40" as="geometry" />
        </mxCell>
        <mxCell id="kcDnxzll6zLoRLHCQ6mz-76" value="" style="rounded=0;whiteSpace=wrap;html=1;fillColor=#647687;fontColor=#ffffff;strokeColor=#314354;" vertex="1" parent="kcDnxzll6zLoRLHCQ6mz-2">
          <mxGeometry x="228.75" y="130" width="80" height="40" as="geometry" />
        </mxCell>
        <mxCell id="kcDnxzll6zLoRLHCQ6mz-77" value="" style="rounded=0;whiteSpace=wrap;html=1;fillColor=#647687;fontColor=#ffffff;strokeColor=#314354;" vertex="1" parent="kcDnxzll6zLoRLHCQ6mz-2">
          <mxGeometry x="343.75" y="130" width="80" height="40" as="geometry" />
        </mxCell>
        <mxCell id="kcDnxzll6zLoRLHCQ6mz-78" style="edgeStyle=orthogonalEdgeStyle;rounded=0;orthogonalLoop=1;jettySize=auto;html=1;exitX=0.25;exitY=1;exitDx=0;exitDy=0;" edge="1" parent="kcDnxzll6zLoRLHCQ6mz-2" source="kcDnxzll6zLoRLHCQ6mz-80" target="kcDnxzll6zLoRLHCQ6mz-81">
          <mxGeometry relative="1" as="geometry" />
        </mxCell>
        <mxCell id="kcDnxzll6zLoRLHCQ6mz-79" style="edgeStyle=orthogonalEdgeStyle;rounded=0;orthogonalLoop=1;jettySize=auto;html=1;exitX=0.75;exitY=1;exitDx=0;exitDy=0;entryX=0.5;entryY=0;entryDx=0;entryDy=0;" edge="1" parent="kcDnxzll6zLoRLHCQ6mz-2" source="kcDnxzll6zLoRLHCQ6mz-80" target="kcDnxzll6zLoRLHCQ6mz-82">
          <mxGeometry relative="1" as="geometry" />
        </mxCell>
        <mxCell id="kcDnxzll6zLoRLHCQ6mz-80" value="notificaciones.py" style="rounded=0;whiteSpace=wrap;html=1;fillColor=#647687;fontColor=#ffffff;strokeColor=#314354;" vertex="1" parent="kcDnxzll6zLoRLHCQ6mz-2">
          <mxGeometry x="493.75" y="50" width="80" height="40" as="geometry" />
        </mxCell>
        <mxCell id="kcDnxzll6zLoRLHCQ6mz-81" value="" style="rounded=0;whiteSpace=wrap;html=1;fillColor=#647687;fontColor=#ffffff;strokeColor=#314354;" vertex="1" parent="kcDnxzll6zLoRLHCQ6mz-2">
          <mxGeometry x="438.75" y="130" width="80" height="40" as="geometry" />
        </mxCell>
        <mxCell id="kcDnxzll6zLoRLHCQ6mz-82" value="" style="rounded=0;whiteSpace=wrap;html=1;fillColor=#647687;fontColor=#ffffff;strokeColor=#314354;" vertex="1" parent="kcDnxzll6zLoRLHCQ6mz-2">
          <mxGeometry x="553.75" y="130" width="80" height="40" as="geometry" />
        </mxCell>
        <mxCell id="kcDnxzll6zLoRLHCQ6mz-85" style="edgeStyle=orthogonalEdgeStyle;rounded=0;orthogonalLoop=1;jettySize=auto;html=1;exitX=0.25;exitY=1;exitDx=0;exitDy=0;" edge="1" parent="kcDnxzll6zLoRLHCQ6mz-2" source="kcDnxzll6zLoRLHCQ6mz-87" target="kcDnxzll6zLoRLHCQ6mz-88">
          <mxGeometry relative="1" as="geometry" />
        </mxCell>
        <mxCell id="kcDnxzll6zLoRLHCQ6mz-86" style="edgeStyle=orthogonalEdgeStyle;rounded=0;orthogonalLoop=1;jettySize=auto;html=1;exitX=0.75;exitY=1;exitDx=0;exitDy=0;entryX=0.5;entryY=0;entryDx=0;entryDy=0;" edge="1" parent="kcDnxzll6zLoRLHCQ6mz-2" source="kcDnxzll6zLoRLHCQ6mz-87" target="kcDnxzll6zLoRLHCQ6mz-89">
          <mxGeometry relative="1" as="geometry" />
        </mxCell>
        <mxCell id="kcDnxzll6zLoRLHCQ6mz-87" value="correos.py" style="rounded=0;whiteSpace=wrap;html=1;" vertex="1" parent="kcDnxzll6zLoRLHCQ6mz-2">
          <mxGeometry x="705" y="50" width="80" height="40" as="geometry" />
        </mxCell>
        <mxCell id="kcDnxzll6zLoRLHCQ6mz-88" value="" style="rounded=0;whiteSpace=wrap;html=1;" vertex="1" parent="kcDnxzll6zLoRLHCQ6mz-2">
          <mxGeometry x="650" y="130" width="80" height="40" as="geometry" />
        </mxCell>
        <mxCell id="kcDnxzll6zLoRLHCQ6mz-89" value="" style="rounded=0;whiteSpace=wrap;html=1;" vertex="1" parent="kcDnxzll6zLoRLHCQ6mz-2">
          <mxGeometry x="765" y="130" width="80" height="40" as="geometry" />
        </mxCell>
        <mxCell id="kcDnxzll6zLoRLHCQ6mz-55" style="edgeStyle=orthogonalEdgeStyle;rounded=0;orthogonalLoop=1;jettySize=auto;html=1;exitX=0;exitY=0;exitDx=0;exitDy=0;" edge="1" parent="1" source="kcDnxzll6zLoRLHCQ6mz-3">
          <mxGeometry relative="1" as="geometry">
            <mxPoint x="900.0869565217392" y="250" as="targetPoint" />
          </mxGeometry>
        </mxCell>
        <mxCell id="kcDnxzll6zLoRLHCQ6mz-57" value="Envía solicitud" style="edgeLabel;html=1;align=center;verticalAlign=middle;resizable=0;points=[];" vertex="1" connectable="0" parent="kcDnxzll6zLoRLHCQ6mz-55">
          <mxGeometry x="-0.0291" relative="1" as="geometry">
            <mxPoint as="offset" />
          </mxGeometry>
        </mxCell>
        <mxCell id="kcDnxzll6zLoRLHCQ6mz-3" value="Vista" style="swimlane;whiteSpace=wrap;html=1;fillColor=#d80073;fontColor=#ffffff;strokeColor=#A50040;" vertex="1" parent="1">
          <mxGeometry x="900" y="390" width="400" height="200" as="geometry" />
        </mxCell>
        <mxCell id="kcDnxzll6zLoRLHCQ6mz-14" value="" style="edgeStyle=orthogonalEdgeStyle;rounded=0;orthogonalLoop=1;jettySize=auto;html=1;" edge="1" parent="kcDnxzll6zLoRLHCQ6mz-3" source="kcDnxzll6zLoRLHCQ6mz-4" target="kcDnxzll6zLoRLHCQ6mz-13">
          <mxGeometry relative="1" as="geometry" />
        </mxCell>
        <mxCell id="kcDnxzll6zLoRLHCQ6mz-17" value="Muestra" style="edgeLabel;html=1;align=center;verticalAlign=middle;resizable=0;points=[];" vertex="1" connectable="0" parent="kcDnxzll6zLoRLHCQ6mz-14">
          <mxGeometry x="-0.17" y="2" relative="1" as="geometry">
            <mxPoint as="offset" />
          </mxGeometry>
        </mxCell>
        <mxCell id="kcDnxzll6zLoRLHCQ6mz-4" value="Catálogo" style="rounded=0;whiteSpace=wrap;html=1;fillColor=#647687;fontColor=#ffffff;strokeColor=#314354;" vertex="1" parent="kcDnxzll6zLoRLHCQ6mz-3">
          <mxGeometry x="15" y="60" width="80" height="40" as="geometry" />
        </mxCell>
        <mxCell id="kcDnxzll6zLoRLHCQ6mz-16" value="" style="edgeStyle=orthogonalEdgeStyle;rounded=0;orthogonalLoop=1;jettySize=auto;html=1;" edge="1" parent="kcDnxzll6zLoRLHCQ6mz-3" source="kcDnxzll6zLoRLHCQ6mz-5" target="kcDnxzll6zLoRLHCQ6mz-15">
          <mxGeometry relative="1" as="geometry" />
        </mxCell>
        <mxCell id="kcDnxzll6zLoRLHCQ6mz-18" value="Muestra" style="edgeLabel;html=1;align=center;verticalAlign=middle;resizable=0;points=[];" vertex="1" connectable="0" parent="kcDnxzll6zLoRLHCQ6mz-16">
          <mxGeometry x="-0.17" y="-1" relative="1" as="geometry">
            <mxPoint as="offset" />
          </mxGeometry>
        </mxCell>
        <mxCell id="kcDnxzll6zLoRLHCQ6mz-5" value="Búsqueda" style="rounded=0;whiteSpace=wrap;html=1;fillColor=#647687;fontColor=#ffffff;strokeColor=#314354;" vertex="1" parent="kcDnxzll6zLoRLHCQ6mz-3">
          <mxGeometry x="110" y="60" width="80" height="40" as="geometry" />
        </mxCell>
        <mxCell id="kcDnxzll6zLoRLHCQ6mz-20" value="" style="edgeStyle=orthogonalEdgeStyle;rounded=0;orthogonalLoop=1;jettySize=auto;html=1;" edge="1" parent="kcDnxzll6zLoRLHCQ6mz-3" source="kcDnxzll6zLoRLHCQ6mz-6" target="kcDnxzll6zLoRLHCQ6mz-19">
          <mxGeometry relative="1" as="geometry" />
        </mxCell>
        <mxCell id="kcDnxzll6zLoRLHCQ6mz-22" value="Muestra" style="edgeLabel;html=1;align=center;verticalAlign=middle;resizable=0;points=[];" vertex="1" connectable="0" parent="kcDnxzll6zLoRLHCQ6mz-20">
          <mxGeometry x="-0.09" relative="1" as="geometry">
            <mxPoint as="offset" />
          </mxGeometry>
        </mxCell>
        <mxCell id="kcDnxzll6zLoRLHCQ6mz-6" value="Préstamo" style="rounded=0;whiteSpace=wrap;html=1;fillColor=#647687;fontColor=#ffffff;strokeColor=#314354;" vertex="1" parent="kcDnxzll6zLoRLHCQ6mz-3">
          <mxGeometry x="205" y="60" width="80" height="40" as="geometry" />
        </mxCell>
        <mxCell id="kcDnxzll6zLoRLHCQ6mz-23" value="" style="edgeStyle=orthogonalEdgeStyle;rounded=0;orthogonalLoop=1;jettySize=auto;html=1;" edge="1" parent="kcDnxzll6zLoRLHCQ6mz-3" source="kcDnxzll6zLoRLHCQ6mz-11" target="kcDnxzll6zLoRLHCQ6mz-21">
          <mxGeometry relative="1" as="geometry" />
        </mxCell>
        <mxCell id="kcDnxzll6zLoRLHCQ6mz-24" value="Muestra" style="edgeLabel;html=1;align=center;verticalAlign=middle;resizable=0;points=[];" vertex="1" connectable="0" parent="kcDnxzll6zLoRLHCQ6mz-23">
          <mxGeometry x="-0.05" y="1" relative="1" as="geometry">
            <mxPoint as="offset" />
          </mxGeometry>
        </mxCell>
        <mxCell id="kcDnxzll6zLoRLHCQ6mz-11" value="Notificar Retraso" style="rounded=0;whiteSpace=wrap;html=1;fillColor=#647687;fontColor=#ffffff;strokeColor=#314354;" vertex="1" parent="kcDnxzll6zLoRLHCQ6mz-3">
          <mxGeometry x="300" y="60" width="80" height="40" as="geometry" />
        </mxCell>
        <mxCell id="kcDnxzll6zLoRLHCQ6mz-13" value="Lista de libros" style="rounded=0;whiteSpace=wrap;html=1;fillColor=#647687;fontColor=#ffffff;strokeColor=#314354;" vertex="1" parent="kcDnxzll6zLoRLHCQ6mz-3">
          <mxGeometry x="15" y="140" width="80" height="40" as="geometry" />
        </mxCell>
        <mxCell id="kcDnxzll6zLoRLHCQ6mz-15" value="Interfaz de Búsqueda" style="rounded=0;whiteSpace=wrap;html=1;fillColor=#647687;fontColor=#ffffff;strokeColor=#314354;" vertex="1" parent="kcDnxzll6zLoRLHCQ6mz-3">
          <mxGeometry x="110" y="140" width="80" height="40" as="geometry" />
        </mxCell>
        <mxCell id="kcDnxzll6zLoRLHCQ6mz-19" value="Préstamo" style="rounded=0;whiteSpace=wrap;html=1;fillColor=#647687;fontColor=#ffffff;strokeColor=#314354;" vertex="1" parent="kcDnxzll6zLoRLHCQ6mz-3">
          <mxGeometry x="205" y="140" width="80" height="40" as="geometry" />
        </mxCell>
        <mxCell id="kcDnxzll6zLoRLHCQ6mz-21" value="Notificación de Alerta" style="rounded=0;whiteSpace=wrap;html=1;fillColor=#647687;fontColor=#ffffff;strokeColor=#314354;" vertex="1" parent="kcDnxzll6zLoRLHCQ6mz-3">
          <mxGeometry x="300" y="140" width="80" height="40" as="geometry" />
        </mxCell>
        <mxCell id="kcDnxzll6zLoRLHCQ6mz-31" value="" style="edgeStyle=orthogonalEdgeStyle;rounded=0;orthogonalLoop=1;jettySize=auto;html=1;" edge="1" parent="1" source="kcDnxzll6zLoRLHCQ6mz-25">
          <mxGeometry relative="1" as="geometry">
            <mxPoint x="1310" y="430" as="targetPoint" />
          </mxGeometry>
        </mxCell>
        <mxCell id="kcDnxzll6zLoRLHCQ6mz-33" value="interactua" style="edgeLabel;html=1;align=center;verticalAlign=middle;resizable=0;points=[];" vertex="1" connectable="0" parent="kcDnxzll6zLoRLHCQ6mz-31">
          <mxGeometry x="-0.0734" y="-4" relative="1" as="geometry">
            <mxPoint as="offset" />
          </mxGeometry>
        </mxCell>
        <mxCell id="kcDnxzll6zLoRLHCQ6mz-25" value="Usuario" style="sketch=0;outlineConnect=0;fontColor=#ffffff;strokeColor=#314354;fillColor=#647687;dashed=0;verticalLabelPosition=bottom;verticalAlign=top;align=center;html=1;fontSize=12;fontStyle=0;aspect=fixed;shape=mxgraph.aws4.resourceIcon;resIcon=mxgraph.aws4.user;shadow=0;" vertex="1" parent="1">
          <mxGeometry x="1420" y="400" width="60" height="60" as="geometry" />
        </mxCell>
        <mxCell id="kcDnxzll6zLoRLHCQ6mz-56" style="edgeStyle=orthogonalEdgeStyle;rounded=0;orthogonalLoop=1;jettySize=auto;html=1;entryX=0.237;entryY=0;entryDx=0;entryDy=0;entryPerimeter=0;" edge="1" parent="1" target="kcDnxzll6zLoRLHCQ6mz-3">
          <mxGeometry relative="1" as="geometry">
            <mxPoint x="995" y="250" as="sourcePoint" />
          </mxGeometry>
        </mxCell>
        <mxCell id="kcDnxzll6zLoRLHCQ6mz-58" value="Renderizado" style="edgeLabel;html=1;align=center;verticalAlign=middle;resizable=0;points=[];" vertex="1" connectable="0" parent="kcDnxzll6zLoRLHCQ6mz-56">
          <mxGeometry x="-0.0019" y="-1" relative="1" as="geometry">
            <mxPoint x="2" as="offset" />
          </mxGeometry>
        </mxCell>
        <mxCell id="kcDnxzll6zLoRLHCQ6mz-60" style="edgeStyle=orthogonalEdgeStyle;rounded=0;orthogonalLoop=1;jettySize=auto;html=1;entryX=0.771;entryY=-0.008;entryDx=0;entryDy=0;entryPerimeter=0;" edge="1" parent="1" target="kcDnxzll6zLoRLHCQ6mz-1">
          <mxGeometry relative="1" as="geometry">
            <mxPoint x="700" y="250" as="sourcePoint" />
          </mxGeometry>
        </mxCell>
        <mxCell id="kcDnxzll6zLoRLHCQ6mz-61" value="Retorna Datos" style="edgeLabel;html=1;align=center;verticalAlign=middle;resizable=0;points=[];" vertex="1" connectable="0" parent="kcDnxzll6zLoRLHCQ6mz-60">
          <mxGeometry x="0.0323" y="-1" relative="1" as="geometry">
            <mxPoint as="offset" />
          </mxGeometry>
        </mxCell>
        <mxCell id="kcDnxzll6zLoRLHCQ6mz-83" value="Text" style="text;html=1;align=center;verticalAlign=middle;whiteSpace=wrap;rounded=0;" vertex="1" parent="1">
          <mxGeometry x="830" y="480" width="60" height="30" as="geometry" />
        </mxCell>
        <mxCell id="kcDnxzll6zLoRLHCQ6mz-84" value="MVC para una Biblioteca" style="text;html=1;align=center;verticalAlign=middle;resizable=0;points=[];autosize=1;strokeColor=none;fillColor=none;fontSize=22;textShadow=1;" vertex="1" parent="1">
          <mxGeometry x="80" y="50" width="270" height="40" as="geometry" />
        </mxCell>
      </root>
    </mxGraphModel>
  </diagram>
</mxfile>
